# xmcd
#
# Track frame offsets:
#	150
#	16651
#	32672
#	51633
#	69062
#	83729
#	99638
#	120171
#	133196
#	149520
#	167712
#	184636
#
# Disc length: 2742 seconds
#
# Revision: 1
# Processed by: cddbd v1.5PL3 Copyright (c) Steve Scherf et al.
# Submitted via: EasyCDDAExtractor 5.1.0
#
DISCID=990ab40c
DTITLE=The Warren Brothers - Beautiful Day In The Cold Cruel World
DYEAR=1900
DGENRE=Country
TTITLE0=Guilty
TTITLE1=Surviving Emily
TTITLE2=Better Man
TTITLE3=Greyhound Bus
TTITLE4=The Enemy
TTITLE5=Loneliest Girl In The World
TTITLE6=Cold Cruel World
TTITLE7=She Wants To Rock
TTITLE8=I Tried
TTITLE9=The One I Can't Live Without
TTITLE10=Just Another Sad Song
TTITLE11=Nowhere Fast
EXTD=
EXTT0=
EXTT1=
EXTT2=
EXTT3=
EXTT4=
EXTT5=
EXTT6=
EXTT7=
EXTT8=
EXTT9=
EXTT10=
EXTT11=
PLAYORDER=
